<svg xmlns="http://www.w3.org/2000/svg" xmlns:xlink="http://www.w3.org/1999/xlink" viewBox="0 0 1601 780"><defs><path id="a" d="M.25 76.284L32 68.08l58 15.018 24-34.04 41-18.021h54l11 37.043h71l26 15.018 40-20.024 73-41.048 30 20.024h31l37-22.026 28 2.002 61 9.01h31l56 22.027 29-22.026 46-19.023 49 10.012 32 41.048 46 5.006 22 25.03 42-16.02 81-35.04 25 26.03 29 5.006 52-24.028 54 24.028 60-31.036 100-11.013 66 7.008 26-31.037L1507 0l39 22.026 25 24.529 29.025-1.52V203H.25z"/></defs><g fill="none" fill-rule="evenodd"><path fill="#505050" d="M0 204h1600v576H0z"/><g stroke="#D1D1D1"><path d="M.41 201.717L248 94l179 107 310 27 420-106 215-77M379 14L246 95"/><path d="M.25 84.877L40 48l209 48-140 193 318-90-49-186 358 216L841 91l317 29 302 120-89-197 196-30 33.025 38.309"/><path d="M1566 15l-108 226-122 45-177-165-137 161"/></g><path d="M.25 174.284L32 166.08l58 15.018 24-34.04 41-18.021h54l11 37.043h71l26 15.018 40-20.024 73-41.048 30 20.024h31l37-22.026 28 2.002 61 9.01h31l56 22.027 29-22.026 46-19.023 49 10.012 32 41.048 46 5.006 22 25.03 42-16.02 81-35.04 25 26.03 29 5.006 52-24.028 54 24.028 60-31.036 100-11.013 66 7.008 26-31.037L1507 98l39 22.026 25 24.529 29.025-1.52V301H.25z" fill="#505050"/><g transform="translate(0 98)"><mask id="b" fill="#fff"><use xlink:href="#a"/></mask><g stroke="#3D3D3D" mask="url(#b)"><path d="M.413 103.716L248-4l179 107 310 27 420-106 215-77M379-84L246-3"/><path d="M-43 27l83-77L249-2 109 191l318-90-49-186 358 216L841-7l317 29 302 120-89-197 196-30 100 116"/><path d="M1566-83l-108 226-122 45-177-165-137 161"/></g></g><g><g transform="translate(365 1)"><circle fill="#FF7E00" cx="12.5" cy="12.5" r="3.5"/><circle stroke="#FF7E00" cx="12.5" cy="12.5" r="12.5"/></g><g transform="translate(229 27)"><circle fill="#FF7E00" cx="17.5" cy="67.5" r="5.5"/><circle stroke="#FF7E00" cx="17.5" cy="67.5" r="17.5"/><circle fill="#FF7E00" cx="507.5" cy="202.5" r="5.5"/><circle stroke="#FF7E00" cx="507.5" cy="202.5" r="17.5"/><circle fill="#FF7E00" cx="1141.5" cy="17.5" r="5.5"/><circle stroke="#FF7E00" cx="1141.5" cy="17.5" r="17.5"/></g><g transform="translate(1145 108)"><circle fill="#C4C4C4" cx="12.5" cy="12.5" r="3.5"/><circle stroke="#CACACA" cx="12.5" cy="12.5" r="12.5"/></g><g opacity=".7" transform="translate(1011 270)"><circle fill="#C4C4C4" cx="12.5" cy="12.5" r="3.5"/><circle stroke="#CACACA" cx="12.5" cy="12.5" r="12.5"/></g><g opacity=".7" transform="translate(1445 228)"><circle fill="#C4C4C4" cx="12.5" cy="12.5" r="3.5"/><circle stroke="#CACACA" cx="12.5" cy="12.5" r="12.5"/></g><g opacity=".6" transform="translate(96 276)"><circle fill="#C4C4C4" cx="12.5" cy="12.5" r="3.5"/><circle stroke="#CACACA" cx="12.5" cy="12.5" r="12.5"/></g><g transform="translate(26 36)"><circle fill="#C4C4C4" cx="12.5" cy="12.5" r="3.5"/><circle stroke="#CACACA" cx="12.5" cy="12.5" r="12.5"/></g><g transform="translate(1322 274)"><circle fill="#FF7E00" cx="12.5" cy="12.5" r="3.5"/><circle stroke="#FF7E00" cx="12.5" cy="12.5" r="12.5"/></g><g transform="translate(413 187)"><circle fill="#FF7E00" cx="12.5" cy="12.5" r="3.5"/><circle stroke="#FF7E00" cx="12.5" cy="12.5" r="12.5"/></g><g transform="translate(1553 2)"><circle fill="#FF7E00" cx="12.5" cy="12.5" r="3.5"/><circle stroke="#FF7E00" cx="12.5" cy="12.5" r="12.5"/></g><g transform="translate(827 79)"><circle fill="#FF7E00" cx="12.5" cy="12.5" r="3.5"/><circle stroke="#FF7E00" cx="12.5" cy="12.5" r="12.5"/></g></g></g></svg>